<svg xmlns="http://www.w3.org/2000/svg" version="1.1" xmlns:xlink="http://www.w3.org/1999/xlink" width="512" height="512" x="0" y="0" viewBox="0 0 512 512" style="enable-background:new 0 0 512 512" xml:space="preserve" class=""><g><path d="M288.273 221.708h-54.62c.495.535.805 1.245.805 2.032v35.841h13.19l-32.746 32.745c3.03 6.737 3.097 13.474 3.097 13.474v23.285l82.362-73.866c4.182-3.474 6.848-8.712 6.848-14.574 0-10.459-8.477-18.937-18.936-18.937z" style="" fill="#ffd5b3" data-original="#ffd5b3"></path><path d="M232.854 220.74H208.55l-25.861 25.861a.999.999 0 0 0 0 1.414l25.44 25.44h24.725a3 3 0 0 0 3-3V223.74a3 3 0 0 0-3-3z" style="" fill="#08375e" data-original="#08375e"></path><path d="M88.356 313.346C43.7 313.346 7.5 349.547 7.5 394.203s36.2 80.857 80.856 80.857c44.657 0 80.857-36.201 80.857-80.857.001-44.656-36.199-80.857-80.857-80.857zm0 140.152c-32.695 0-59.295-26.6-59.295-59.295s26.6-59.295 59.295-59.295c32.696 0 59.296 26.6 59.296 59.295s-26.599 59.295-59.296 59.295z" style="" fill="#9ea7af" data-original="#9ea7af"></path><path d="M88.356 460.998c-36.831 0-66.795-29.964-66.795-66.795s29.964-66.795 66.795-66.795 66.796 29.964 66.796 66.795-29.964 66.795-66.796 66.795zm0-118.59c-28.559 0-51.795 23.235-51.795 51.795s23.235 51.795 51.795 51.795c28.561 0 51.796-23.235 51.796-51.795 0-28.56-23.235-51.795-51.796-51.795z" style="" fill="#c5ccd3" data-original="#c5ccd3"></path><path d="M411.784 313.346c-44.656 0-80.857 36.201-80.857 80.857s36.2 80.857 80.857 80.857c44.656 0 80.856-36.201 80.856-80.857.001-44.656-36.2-80.857-80.856-80.857zm0 140.152c-32.695 0-59.295-26.6-59.295-59.295s26.6-59.295 59.295-59.295 59.295 26.6 59.295 59.295-26.6 59.295-59.295 59.295z" style="" fill="#9ea7af" data-original="#9ea7af"></path><path d="M411.784 460.998c-36.831 0-66.795-29.964-66.795-66.795s29.964-66.795 66.795-66.795 66.795 29.964 66.795 66.795-29.964 66.795-66.795 66.795zm0-118.59c-28.56 0-51.795 23.235-51.795 51.795s23.235 51.795 51.795 51.795 51.795-23.235 51.795-51.795c0-28.56-23.235-51.795-51.795-51.795z" style="" fill="#c5ccd3" data-original="#c5ccd3"></path><path d="M186.385 401.359c0-1.638 1.043-3.136 2.595-3.727a1 1 0 0 0 .641-1.018l-.823-9.912H105.97l70.454-73.299a2.026 2.026 0 0 1-.34-.27l-10.303-10.303-80.751 84.011c-2.649 2.755-3.446 6.458-2.082 9.663 1.365 3.206 4.588 5.197 8.409 5.197h95.028v-.342zM438.15 265.371c0-15.728-12.795-28.522-28.522-28.522H382.89a14.894 14.894 0 0 1-.362 15h27.101c7.456 0 13.522 6.066 13.522 13.522 0 7.457-6.066 13.523-13.522 13.523H212.511a1.983 1.983 0 0 1-.565 1.208l-2.962 2.962a1 1 0 0 0 .062 1.471c3.102 2.618 5.131 6.033 6.464 9.359h121.25l-76.739 79.838a30.207 30.207 0 0 1 11.403 9.782l86.141-89.62h4.725l42.561 103.169a7.502 7.502 0 0 0 6.937 4.642 7.502 7.502 0 0 0 6.931-10.363l-40.202-97.449h31.112c15.726.001 28.521-12.795 28.521-28.522z" style="" fill="#368c0e" data-original="#368c0e"></path><path d="M246.836 369.671c-13.06 0-24.225 8.08-28.791 19.51v7.178a1 1 0 0 0 1 1h20.635c2.206 0 4 1.794 4 4v12.64c0 2.206-1.794 4-4 4h-18.553c5.571 8.248 15.007 13.672 25.709 13.672 17.121 0 31-13.879 31-31 0-17.12-13.879-31-31-31z" style="" fill="#9ea7af" data-original="#9ea7af"></path><path d="M219.044 305.799s-.152-15.057-10.138-22.659l-27.438 27.437 7.24 87.145a4.92 4.92 0 0 1 1.676-.311h28.66v-91.612z" style="" fill="#ffb98a" data-original="#ffb98a"></path><path d="M228.829 101.646c0 23.045 18.684 41.729 41.73 41.729s41.728-18.684 41.728-41.729V79.622h-83.458v22.024z" style="" fill="#ffd5b3" data-original="#ffd5b3"></path><path d="M228.939 79.622a42.926 42.926 0 0 0-.11 3.056v18.968c0 16.554 9.641 30.857 23.614 37.601V79.622h-23.504z" style="" fill="#775436" data-original="#775436"></path><path d="M270.56 29.44c-23.047 0-41.73 11.479-41.73 34.525v1.201h-35.08a8.006 8.006 0 0 0 0 16.012h118.537V65.117c0-23.046-18.682-35.677-41.727-35.677z" style="" fill="#ef5050" data-original="#ef5050"></path><path d="M270.56 29.44c-2.045 0-4.054.095-6.021.276 20.336 1.936 36.004 14.298 36.004 35.401v16.062h11.744V65.117c0-23.046-18.682-35.677-41.727-35.677z" style="opacity:0.1;enable-background:new ;" fill="#000000" opacity="1" data-original="#000000"></path><path d="M244.68 413.999c0 2.75-2.25 5-5 5h-49.295c-2.75 0-5-2.25-5-5v-12.64c0-2.75 2.25-5 5-5h49.295c2.75 0 5 2.25 5 5v12.64z" style="" fill="#f7931e" data-original="#f7931e"></path><path d="M206 413.999v-12.64c0-2.75 2.25-5 5-5h-20.615c-2.75 0-5 2.25-5 5v12.64c0 2.75 2.25 5 5 5H211c-2.75 0-5-2.25-5-5z" style="opacity:0.1;" fill="#000000" opacity="1" data-original="#000000"></path><path d="m182.63 248.074 61.97-61.97a5.383 5.383 0 0 1-5.445.286c-17.593-9.11-28.521-27.086-28.521-46.914 0-3.99.451-7.98 1.342-11.861a5.361 5.361 0 0 1 1.12-2.249 21.524 21.524 0 0 0-1.898 1.669l-74.805 74.805 46.237 46.234z" style="" fill="#fcdb67" data-original="#fcdb67"></path><path d="m146.46 211.905 63.225-63.225a53.081 53.081 0 0 1 .761-19.691c.22-.961.711-1.83 1.394-2.534-.212.196-.435.373-.641.579l-74.805 74.805 10.066 10.066z" style="opacity:0.1;enable-background:new ;" fill="#000000" opacity="1" data-original="#000000"></path><path d="M381.699 214.162h-30.706l-48.611-26.438-60.689-60.69c-4.057-4.056-9.472-6.29-15.247-6.29-5.309 0-10.396 1.926-14.329 5.423a5.39 5.39 0 0 0-1.671 2.822 53.081 53.081 0 0 0-1.342 11.861c0 19.828 10.928 37.804 28.52 46.914a5.391 5.391 0 0 0 6.29-.975l5.473-5.474 38.977 31.349c.345.277.722.511 1.124.696l63.286 29.132c.629.289 1.289.44 1.947.477.022.02.047.037.069.056.529-7.794 7.022-13.977 14.948-13.977 8.271 0 15 6.729 15 14.999 0 .305-.027.604-.046.904 3.931-1.264 6.776-4.947 6.776-9.299v-11.724c.001-5.393-4.372-9.766-9.769-9.766z" style="" fill="#ffb98a" data-original="#ffb98a"></path><circle cx="369.74" cy="244.05" r="16" style="" fill="#046699" data-original="#046699"></circle><path d="M292.232 109.95a8.006 8.006 0 0 1-8.006-8.006V94.5c0-4.422 3.584-8.006 8.006-8.006s8.006 3.584 8.006 8.006v7.444a8.005 8.005 0 0 1-8.006 8.006z" style="" fill="#775436" data-original="#775436"></path><path d="M504.5 482.56H7.5c-4.143 0-7.5-3.358-7.5-7.5s3.357-7.5 7.5-7.5h497c4.143 0 7.5 3.358 7.5 7.5s-3.357 7.5-7.5 7.5z" style="" fill="#c5ccd3" data-original="#c5ccd3"></path><path d="m212.652 276.566-75.395-75.394c-.033-.033-.063-.068-.097-.101l-22.031 22.032c-8.386 8.386-8.386 22.107 0 30.493l60.246 60.246a2.991 2.991 0 0 0 2.121.879c.768 0 1.535-.293 2.121-.878l33.034-33.033a3 3 0 0 0 .001-4.244z" style="" fill="#046699" data-original="#046699"></path></g></svg>